<svg width="800" height="400" xmlns="http://www.w3.org/2000/svg">
  <defs>
    <linearGradient id="river-gradient" x1="0%" y1="0%" x2="100%" y2="100%">
      <stop offset="0%" style="stop-color:#0284c7;stop-opacity:1" />
      <stop offset="100%" style="stop-color:#0369a1;stop-opacity:1" />
    </linearGradient>
  </defs>
  
  <!-- Background -->
  <rect width="100%" height="100%" fill="url(#river-gradient)"/>
  
  <!-- River representation -->
  <path d="M 0% 40% Q 20% 35% 40% 45% T 80% 40% Q 90% 35% 100% 45% L 100% 100% L 0% 100% Z" fill="#075985" opacity="0.6"/>
  
  <!-- Jungle/Riverbank -->
  <path d="M 0% 60% L 100% 60% L 100% 100% L 0% 100% Z" fill="#16a34a" opacity="0.4"/>
  
  <!-- Boat -->
  <g transform="translate(30%, 50%)">
    <path d="M -15 0 Q 0 -5 15 0 L 12 5 L -12 5 Z" fill="#92400e" opacity="0.8"/>
    <rect x="-2" y="-8" width="4" height="8" fill="#7c2d12" opacity="0.8"/>
  </g>
  
  <!-- Palm trees -->
  <g transform="translate(70%, 55%)">
    <rect x="-1" y="0" width="2" height="15" fill="#92400e"/>
    <path d="M 0 0 Q -8 -6 -10 -10 M 0 0 Q -5 -4 -7 -7 M 0 0 Q 5 -4 7 -7 M 0 0 Q 8 -6 10 -10" stroke="#16a34a" stroke-width="2" fill="none"/>
  </g>
  
  <g transform="translate(15%, 65%)">
    <rect x="-1" y="0" width="2" height="12" fill="#92400e"/>
    <path d="M 0 0 Q -6 -5 -8 -8 M 0 0 Q -4 -3 -6 -5 M 0 0 Q 4 -3 6 -5 M 0 0 Q 6 -5 8 -8" stroke="#16a34a" stroke-width="2" fill="none"/>
  </g>
  
  <!-- Text -->
  <text x="50%" y="85%" text-anchor="middle" fill="#ffffff" font-family="Arial, sans-serif" font-size="24" font-weight="bold">Río Dulce</text>
  <text x="50%" y="95%" text-anchor="middle" fill="#cffafe" font-family="Arial, sans-serif" font-size="12">Livingston - Caribe</text>
</svg>
